<svg
    xmlns="http://www.w3.org/2000/svg"
    width="512.000000pt"
    height="512.000000pt"
    viewBox="0 0 512.000000 512.000000"
    preserveAspectRatio="xMidYMid meet"
>
    <g transform="translate(0.000000,512.000000) scale(0.100000,-0.100000)" fill="currentColor" stroke="none">
        <path
            d="
                M3089 4842 c-431 -297 -438 -303 -389 -347 18 -16 26 -17 50 -8 40
                15 46 -7 15 -53 -18 -26 -25 -51 -25 -83 0 -45 1 -47 107 -150 149 -144 169
                -156 258 -156 64 0 78 4 125 33 l54 34 63 -17 c35 -10 63 -19 63 -21 0 -12
                -318 -439 -335 -450 -11 -7 -101 -50 -200 -94 -99 -45 -185 -87 -191 -93 -6
                -7 -63 -161 -128 -343 l-117 -332 25 -36 c112 -165 -8 -387 -208 -386 -193 1
                -304 191 -215 368 l31 62 -102 287 c-57 159 -106 298 -111 310 -7 20 -12 21
                -37 12 -64 -22 -83 -58 -397 -746 -168 -370 -309 -688 -312 -707 -12 -77 28
                -155 100 -193 47 -24 119 -20 170 10 53 32 68 59 232 422 65 143 122 264 126
                270 5 5 9 -483 9 -1130 0 -1081 1 -1142 19 -1180 62 -138 240 -166 349 -54 62
                64 62 64 62 781 l0 648 80 0 80 0 0 -667 c0 -751 -3 -716 76 -781 88 -73 207
                -67 288 14 65 66 60 -48 66 1558 l5 1458 274 124 c151 68 278 127 281 131 4 4
                85 115 180 246 95 131 175 236 177 233 3 -3 0 -19 -6 -37 -21 -60 -9 -143 24
                -155 8 -4 66 29 142 81 159 108 171 120 157 143 -18 28 -86 62 -126 62 -30 0
                -42 7 -67 37 -21 25 -29 44 -25 59 9 37 -15 102 -58 151 l-40 47 6 96 c6 87 9
                97 34 118 100 87 116 113 116 197 1 50 -8 82 -53 195 -32 77 -66 146 -81 162
                -35 34 -86 44 -133 25 -31 -14 -36 -14 -41 0 -3 8 1 24 9 36 8 12 15 29 15 38
                0 19 -31 49 -52 49 -8 0 -197 -125 -419 -278z m606 -70 c27 -65 47 -134 48
                -154 0 -36 -25 -88 -42 -88 -4 0 -13 31 -20 70 -7 38 -30 119 -50 180 -34 98
                -37 112 -22 119 25 15 36 -1 86 -127z m-762 -438 c34 -31 102 -82 151 -115
                l89 -58 -29 -11 c-54 -21 -87 -5 -198 97 -58 54 -106 102 -106 108 0 10 20 35
                28 35 2 0 32 -25 65 -56z
            "
        />
        <path
            d="
                M2172 4309 c-123 -24 -231 -108 -289 -227 -34 -67 -38 -86 -41 -163
                -6 -135 32 -231 125 -320 85 -81 177 -119 289 -119 164 0 312 95 380 245 143
                311 -127 651 -464 584z
            "
        />
        <path
            d="
                M2022 3388 c3 -7 47 -133 99 -280 l94 -268 41 0 41 0 97 270 c53 149
                96 275 96 280 0 6 -92 10 -236 10 -185 0 -235 -3 -232 -12z
            "
        />
    </g>
</svg>
