<?xml version="1.0" encoding="UTF-8"?>
<svg version="1.1" xmlns="http://www.w3.org/2000/svg" width="96" height="96">
<path d="M0 0 C1.98 0 3.96 0 6 0 C6 1.65 6 3.3 6 5 C7.98 5 9.96 5 12 5 C12 14.24 12 23.48 12 33 C10.02 33 8.04 33 6 33 C6 41.58 6 50.16 6 59 C4.35 59 2.7 59 1 59 C1 69.56 1 80.12 1 91 C-4.28 91 -9.56 91 -15 91 C-15 92.65 -15 94.3 -15 96 C-22.59 96 -30.18 96 -38 96 C-38 94.35 -38 92.7 -38 91 C-43.28 91 -48.56 91 -54 91 C-54 87.04 -54 83.08 -54 79 C-52.02 79 -50.04 79 -48 79 C-48 77.68 -48 76.36 -48 75 C-49.98 75 -51.96 75 -54 75 C-54 69.39 -54 63.78 -54 58 C-52.02 58 -50.04 58 -48 58 C-48 55.03 -48 52.06 -48 49 C-49.32 49 -50.64 49 -52 49 C-52 50.65 -52 52.3 -52 54 C-53.98 54 -55.96 54 -58 54 C-58 55.65 -58 57.3 -58 59 C-59.98 59 -61.96 59 -64 59 C-64 57.35 -64 55.7 -64 54 C-65.98 54 -67.96 54 -70 54 C-70 48.39 -70 42.78 -70 37 C-68.02 37 -66.04 37 -64 37 C-64 33.37 -64 29.74 -64 26 C-62.35 26 -60.7 26 -59 26 C-59 24.35 -59 22.7 -59 21 C-57.35 21 -55.7 21 -54 21 C-54 19.02 -54 17.04 -54 15 C-52.02 15 -50.04 15 -48 15 C-48 13.35 -48 11.7 -48 10 C-46.35 10 -44.7 10 -43 10 C-43 8.35 -43 6.7 -43 5 C-32.11 5 -21.22 5 -10 5 C-10 6.65 -10 8.3 -10 10 C-8.68 10 -7.36 10 -6 10 C-6 8.35 -6 6.7 -6 5 C-4.02 5 -2.04 5 0 5 C0 3.35 0 1.7 0 0 Z " fill="#ADAD2C" transform="translate(77,0)"/>
<path d="M0 0 C1.98 0 3.96 0 6 0 C6 1.65 6 3.3 6 5 C7.98 5 9.96 5 12 5 C12 14.24 12 23.48 12 33 C10.02 33 8.04 33 6 33 C6 41.58 6 50.16 6 59 C4.35 59 2.7 59 1 59 C1 69.56 1 80.12 1 91 C-4.28 91 -9.56 91 -15 91 C-15 89.35 -15 87.7 -15 86 C-11.7 86 -8.4 86 -5 86 C-5 84.02 -5 82.04 -5 80 C-6.65 80 -8.3 80 -10 80 C-10 78.35 -10 76.7 -10 75 C-8.35 75 -6.7 75 -5 75 C-5 71.37 -5 67.74 -5 64 C-6.65 64 -8.3 64 -10 64 C-10 58.72 -10 53.44 -10 48 C-8.35 48 -6.7 48 -5 48 C-5 46.35 -5 44.7 -5 43 C-6.98 43 -8.96 43 -11 43 C-11 41.35 -11 39.7 -11 38 C-15.95 38 -20.9 38 -26 38 C-26 39.65 -26 41.3 -26 43 C-29.63 43 -33.26 43 -37 43 C-37 37.39 -37 31.78 -37 26 C-35.35 26 -33.7 26 -32 26 C-32 24.35 -32 22.7 -32 21 C-24.74 21 -17.48 21 -10 21 C-10 22.65 -10 24.3 -10 26 C-8.35 26 -6.7 26 -5 26 C-5 31.28 -5 36.56 -5 42 C-3.35 42 -1.7 42 0 42 C0 35.4 0 28.8 0 22 C-1.65 22 -3.3 22 -5 22 C-5 20.02 -5 18.04 -5 16 C-6.98 16 -8.96 16 -11 16 C-11 14.35 -11 12.7 -11 11 C-21.23 11 -31.46 11 -42 11 C-42 12.65 -42 14.3 -42 16 C-43.98 16 -45.96 16 -48 16 C-48 17.65 -48 19.3 -48 21 C-49.65 21 -51.3 21 -53 21 C-53 22.98 -53 24.96 -53 27 C-54.65 27 -56.3 27 -58 27 C-58 30.63 -58 34.26 -58 38 C-59.65 38 -61.3 38 -63 38 C-63 42.95 -63 47.9 -63 53 C-61.68 53 -60.36 53 -59 53 C-59 51.35 -59 49.7 -59 48 C-57.02 48 -55.04 48 -53 48 C-53 44.7 -53 41.4 -53 38 C-51.35 38 -49.7 38 -48 38 C-48 41.3 -48 44.6 -48 48 C-46.35 48 -44.7 48 -43 48 C-43 51.3 -43 54.6 -43 58 C-44.65 58 -46.3 58 -48 58 C-48 55.03 -48 52.06 -48 49 C-49.32 49 -50.64 49 -52 49 C-52 50.65 -52 52.3 -52 54 C-53.98 54 -55.96 54 -58 54 C-58 55.65 -58 57.3 -58 59 C-59.98 59 -61.96 59 -64 59 C-64 57.35 -64 55.7 -64 54 C-65.98 54 -67.96 54 -70 54 C-70 48.39 -70 42.78 -70 37 C-68.02 37 -66.04 37 -64 37 C-64 33.37 -64 29.74 -64 26 C-62.35 26 -60.7 26 -59 26 C-59 24.35 -59 22.7 -59 21 C-57.35 21 -55.7 21 -54 21 C-54 19.02 -54 17.04 -54 15 C-52.02 15 -50.04 15 -48 15 C-48 13.35 -48 11.7 -48 10 C-46.35 10 -44.7 10 -43 10 C-43 8.35 -43 6.7 -43 5 C-32.11 5 -21.22 5 -10 5 C-10 6.65 -10 8.3 -10 10 C-8.68 10 -7.36 10 -6 10 C-6 8.35 -6 6.7 -6 5 C-4.02 5 -2.04 5 0 5 C0 3.35 0 1.7 0 0 Z " fill="#332913" transform="translate(77,0)"/>
<path d="M0 0 C10.23 0 20.46 0 31 0 C31 1.65 31 3.3 31 5 C32.98 5 34.96 5 37 5 C37 6.98 37 8.96 37 11 C38.65 11 40.3 11 42 11 C42 17.6 42 24.2 42 31 C40.35 31 38.7 31 37 31 C37 25.72 37 20.44 37 15 C35.35 15 33.7 15 32 15 C32 13.35 32 11.7 32 10 C24.74 10 17.48 10 10 10 C10 11.65 10 13.3 10 15 C8.35 15 6.7 15 5 15 C5 20.61 5 26.22 5 32 C8.63 32 12.26 32 16 32 C16 30.35 16 28.7 16 27 C20.95 27 25.9 27 31 27 C31 28.65 31 30.3 31 32 C32.98 32 34.96 32 37 32 C37 33.65 37 35.3 37 37 C35.02 37 33.04 37 31 37 C31 38.65 31 40.3 31 42 C20.77 42 10.54 42 0 42 C0 40.35 0 38.7 0 37 C-1.98 37 -3.96 37 -6 37 C-6 33.7 -6 30.4 -6 27 C-7.65 27 -9.3 27 -11 27 C-11 30.3 -11 33.6 -11 37 C-12.98 37 -14.96 37 -17 37 C-17 38.65 -17 40.3 -17 42 C-18.32 42 -19.64 42 -21 42 C-21 37.05 -21 32.1 -21 27 C-19.35 27 -17.7 27 -16 27 C-16 23.37 -16 19.74 -16 16 C-14.35 16 -12.7 16 -11 16 C-11 14.02 -11 12.04 -11 10 C-9.35 10 -7.7 10 -6 10 C-6 8.35 -6 6.7 -6 5 C-4.02 5 -2.04 5 0 5 C0 3.35 0 1.7 0 0 Z " fill="#FBFB3E" transform="translate(35,11)"/>
<path d="M0 0 C1.98 0 3.96 0 6 0 C6 9.24 6 18.48 6 28 C4.02 28 2.04 28 0 28 C0 36.58 0 45.16 0 54 C-1.65 54 -3.3 54 -5 54 C-5 64.56 -5 75.12 -5 86 C-10.28 86 -15.56 86 -21 86 C-21 84.35 -21 82.7 -21 81 C-17.7 81 -14.4 81 -11 81 C-11 79.02 -11 77.04 -11 75 C-12.65 75 -14.3 75 -16 75 C-16 73.35 -16 71.7 -16 70 C-14.35 70 -12.7 70 -11 70 C-11 66.37 -11 62.74 -11 59 C-12.65 59 -14.3 59 -16 59 C-16 53.72 -16 48.44 -16 43 C-14.35 43 -12.7 43 -11 43 C-11 41.35 -11 39.7 -11 38 C-9.02 38 -7.04 38 -5 38 C-5 31.07 -5 24.14 -5 17 C-3.35 17 -1.7 17 0 17 C0 11.39 0 5.78 0 0 Z " fill="#1A0F0E" transform="translate(83,5)"/>
<path d="M0 0 C3.3 0 6.6 0 10 0 C10 1.98 10 3.96 10 6 C13.3 6 16.6 6 20 6 C20 7.65 20 9.3 20 11 C21.98 11 23.96 11 26 11 C26 9.02 26 7.04 26 5 C29.63 5 33.26 5 37 5 C37 3.35 37 1.7 37 0 C38.65 0 40.3 0 42 0 C42 3.63 42 7.26 42 11 C40.35 11 38.7 11 37 11 C37 12.65 37 14.3 37 16 C38.65 16 40.3 16 42 16 C42 17.98 42 19.96 42 22 C38.7 22 35.4 22 32 22 C32 23.65 32 25.3 32 27 C24.74 27 17.48 27 10 27 C10 25.02 10 23.04 10 21 C6.7 21 3.4 21 0 21 C0 19.35 0 17.7 0 16 C1.65 16 3.3 16 5 16 C5 14.02 5 12.04 5 10 C3.35 10 1.7 10 0 10 C0 6.7 0 3.4 0 0 Z " fill="#FAF93E" transform="translate(30,64)"/>
<path d="M0 0 C7.26 0 14.52 0 22 0 C22 1.65 22 3.3 22 5 C23.65 5 25.3 5 27 5 C27 10.28 27 15.56 27 21 C25.35 21 23.7 21 22 21 C22 19.35 22 17.7 22 16 C16.39 16 10.78 16 5 16 C5 17.65 5 19.3 5 21 C1.7 21 -1.6 21 -5 21 C-5 15.72 -5 10.44 -5 5 C-3.35 5 -1.7 5 0 5 C0 3.35 0 1.7 0 0 Z " fill="#22170F" transform="translate(45,21)"/>
<path d="M0 0 C1.98 0 3.96 0 6 0 C6 9.24 6 18.48 6 28 C4.02 28 2.04 28 0 28 C0 36.58 0 45.16 0 54 C-1.65 54 -3.3 54 -5 54 C-5 50.37 -5 46.74 -5 43 C-6.98 43 -8.96 43 -11 43 C-11 41.35 -11 39.7 -11 38 C-9.02 38 -7.04 38 -5 38 C-5 31.07 -5 24.14 -5 17 C-3.35 17 -1.7 17 0 17 C0 11.39 0 5.78 0 0 Z " fill="#190D0D" transform="translate(83,5)"/>
<path d="M0 0 C3.63 0 7.26 0 11 0 C11 0.33 11 0.66 11 1 C9.35 1 7.7 1 6 1 C6 4.63 6 8.26 6 12 C4.35 12 2.7 12 1 12 C1 16.95 1 21.9 1 27 C2.32 27 3.64 27 5 27 C5 25.35 5 23.7 5 22 C6.98 22 8.96 22 11 22 C11 18.7 11 15.4 11 12 C12.65 12 14.3 12 16 12 C16 15.3 16 18.6 16 22 C17.65 22 19.3 22 21 22 C21 25.3 21 28.6 21 32 C19.35 32 17.7 32 16 32 C16 29.03 16 26.06 16 23 C14.68 23 13.36 23 12 23 C12 24.65 12 26.3 12 28 C10.02 28 8.04 28 6 28 C6 29.65 6 31.3 6 33 C4.02 33 2.04 33 0 33 C0 31.35 0 29.7 0 28 C-1.98 28 -3.96 28 -6 28 C-6 22.39 -6 16.78 -6 11 C-4.02 11 -2.04 11 0 11 C0 7.37 0 3.74 0 0 Z " fill="#8C8726" transform="translate(13,26)"/>
<path d="M0 0 C1.65 0 3.3 0 5 0 C5 3.63 5 7.26 5 11 C3.35 11 1.7 11 0 11 C0 12.65 0 14.3 0 16 C1.65 16 3.3 16 5 16 C5 17.98 5 19.96 5 22 C1.7 22 -1.6 22 -5 22 C-5 23.65 -5 25.3 -5 27 C-12.26 27 -19.52 27 -27 27 C-27 26.67 -27 26.34 -27 26 C-20.07 26 -13.14 26 -6 26 C-6 24.35 -6 22.7 -6 21 C-7.65 21 -9.3 21 -11 21 C-11 15.72 -11 10.44 -11 5 C-7.37 5 -3.74 5 0 5 C0 3.35 0 1.7 0 0 Z " fill="#DCDB38" transform="translate(67,64)"/>
<path d="M0 0 C1.98 0 3.96 0 6 0 C6 2.31 6 4.62 6 7 C9.63 7 13.26 7 17 7 C17 8.65 17 10.3 17 12 C24.26 12 31.52 12 39 12 C39 13.65 39 15.3 39 17 C31.41 17 23.82 17 16 17 C16 15.35 16 13.7 16 12 C10.72 12 5.44 12 0 12 C0 8.04 0 4.08 0 0 Z " fill="#190D0D" transform="translate(23,79)"/>
<path d="M0 0 C1.98 0 3.96 0 6 0 C6 7.26 6 14.52 6 22 C4.35 22 2.7 22 1 22 C1 28.93 1 35.86 1 43 C-2.96 43 -6.92 43 -11 43 C-11 41.35 -11 39.7 -11 38 C-15.95 38 -20.9 38 -26 38 C-26 39.65 -26 41.3 -26 43 C-29.63 43 -33.26 43 -37 43 C-37 42.67 -37 42.34 -37 42 C-33.7 42 -30.4 42 -27 42 C-27 40.35 -27 38.7 -27 37 C-21.39 37 -15.78 37 -10 37 C-10 38.65 -10 40.3 -10 42 C-6.7 42 -3.4 42 0 42 C0 35.4 0 28.8 0 22 C-1.65 22 -3.3 22 -5 22 C-5 21.67 -5 21.34 -5 21 C-3.35 21 -1.7 21 0 21 C0 14.07 0 7.14 0 0 Z " fill="#78622B" transform="translate(77,0)"/>
<path d="M0 0 C10.89 0 21.78 0 33 0 C33 1.65 33 3.3 33 5 C22.11 5 11.22 5 0 5 C0 3.35 0 1.7 0 0 Z " fill="#180D0D" transform="translate(34,5)"/>
<path d="M0 0 C4.95 0 9.9 0 15 0 C15 2.97 15 5.94 15 9 C8.4 9 1.8 9 -5 9 C-5 7.68 -5 6.36 -5 5 C-3.35 5 -1.7 5 0 5 C0 3.35 0 1.7 0 0 Z " fill="#FFD4A8" transform="translate(51,38)"/>
<path d="M0 0 C3.63 0 7.26 0 11 0 C11 3.63 11 7.26 11 11 C9.02 11 7.04 11 5 11 C5 12.65 5 14.3 5 16 C3.35 16 1.7 16 0 16 C0 10.72 0 5.44 0 0 Z " fill="#3C290E" transform="translate(67,48)"/>
<path d="M0 0 C1.65 0 3.3 0 5 0 C5 3.3 5 6.6 5 10 C6.65 10 8.3 10 10 10 C10 13.3 10 16.6 10 20 C8.35 20 6.7 20 5 20 C5 17.03 5 14.06 5 11 C3.68 11 2.36 11 1 11 C1 12.65 1 14.3 1 16 C-0.98 16 -2.96 16 -5 16 C-5 14.02 -5 12.04 -5 10 C-3.35 10 -1.7 10 0 10 C0 6.7 0 3.4 0 0 Z " fill="#1E130E" transform="translate(24,38)"/>
<path d="M0 0 C3.3 0 6.6 0 10 0 C10 3.63 10 7.26 10 11 C6.7 10.67 3.4 10.34 0 10 C0 6.7 0 3.4 0 0 Z " fill="#FCFCE3" transform="translate(30,64)"/>
<path d="M0 0 C1.98 0 3.96 0 6 0 C6 5.61 6 11.22 6 17 C4.02 17 2.04 17 0 17 C0 11.39 0 5.78 0 0 Z " fill="#180C0C" transform="translate(23,58)"/>
<path d="M0 0 C1.98 0 3.96 0 6 0 C6 5.61 6 11.22 6 17 C4.02 17 2.04 17 0 17 C0 11.39 0 5.78 0 0 Z " fill="#180C0C" transform="translate(7,37)"/>
<path d="M0 0 C1.65 0 3.3 0 5 0 C5 1.98 5 3.96 5 6 C3.35 6 1.7 6 0 6 C0 7.65 0 9.3 0 11 C-1.65 11 -3.3 11 -5 11 C-5 12.65 -5 14.3 -5 16 C-6.98 16 -8.96 16 -11 16 C-11 14.35 -11 12.7 -11 11 C-9.35 11 -7.7 11 -6 11 C-6 9.02 -6 7.04 -6 5 C-4.02 5 -2.04 5 0 5 C0 3.35 0 1.7 0 0 Z " fill="#1B100D" transform="translate(29,10)"/>
<path d="M0 0 C0.33 0 0.66 0 1 0 C1 3.63 1 7.26 1 11 C-0.65 11 -2.3 11 -4 11 C-4 15.95 -4 20.9 -4 26 C-2.35 26 -0.7 26 1 26 C1 27.98 1 29.96 1 32 C-0.65 32 -2.3 32 -4 32 C-4 33.65 -4 35.3 -4 37 C-0.7 37 2.6 37 6 37 C6 37.33 6 37.66 6 38 C2.37 38 -1.26 38 -5 38 C-5 28.76 -5 19.52 -5 10 C-3.35 10 -1.7 10 0 10 C0 6.7 0 3.4 0 0 Z " fill="#78733C" transform="translate(34,48)"/>
<path d="M0 0 C1.65 0 3.3 0 5 0 C5 3.3 5 6.6 5 10 C1.7 10 -1.6 10 -5 10 C-5 8.35 -5 6.7 -5 5 C-3.35 5 -1.7 5 0 5 C0 3.35 0 1.7 0 0 Z " fill="#FBFB3E" transform="translate(35,75)"/>
<path d="M0 0 C1.32 0 2.64 0 4 0 C4 4.95 4 9.9 4 15 C2.68 15 1.36 15 0 15 C0 10.05 0 5.1 0 0 Z " fill="#92610D" transform="translate(78,6)"/>
<path d="M0 0 C1.65 0 3.3 0 5 0 C5 3.63 5 7.26 5 11 C3.35 11 1.7 11 0 11 C0 7.37 0 3.74 0 0 Z " fill="#BFB2A8" transform="translate(67,64)"/>
<path d="M0 0 C0.33 1.32 0.66 2.64 1 4 C7.6 4 14.2 4 21 4 C21 2.68 21 1.36 21 0 C22.98 0 24.96 0 27 0 C27 1.65 27 3.3 27 5 C18.09 5 9.18 5 0 5 C0 3.35 0 1.7 0 0 Z " fill="#FEDC90" transform="translate(45,43)"/>
<path d="M0 0 C1.65 0 3.3 0 5 0 C5 3.63 5 7.26 5 11 C3.35 11 1.7 11 0 11 C0 7.37 0 3.74 0 0 Z " fill="#180D0D" transform="translate(13,26)"/>
<path d="M0 0 C1.65 0 3.3 0 5 0 C5 3.3 5 6.6 5 10 C3.35 10 1.7 10 0 10 C0 6.7 0 3.4 0 0 Z " fill="#555512" transform="translate(56,75)"/>
<path d="M0 0 C1.65 0 3.3 0 5 0 C5 3.3 5 6.6 5 10 C3.35 10 1.7 10 0 10 C0 6.7 0 3.4 0 0 Z " fill="#AFAF2B" transform="translate(40,75)"/>
<path d="M0 0 C1.65 0 3.3 0 5 0 C5 3.3 5 6.6 5 10 C3.35 10 1.7 10 0 10 C0 6.7 0 3.4 0 0 Z " fill="#545414" transform="translate(40,59)"/>
<path d="M0 0 C1.65 0 3.3 0 5 0 C5 3.3 5 6.6 5 10 C3.35 10 1.7 10 0 10 C0 6.7 0 3.4 0 0 Z " fill="#8D5D0D" transform="translate(72,48)"/>
<path d="M0 0 C1.32 0 2.64 0 4 0 C4 2.97 4 5.94 4 9 C2.68 9 1.36 9 0 9 C0 6.03 0 3.06 0 0 Z " fill="#190E0E" transform="translate(67,49)"/>
<path d="M0 0 C1.65 0 3.3 0 5 0 C5 1.98 5 3.96 5 6 C3.35 6 1.7 6 0 6 C0 4.02 0 2.04 0 0 Z " fill="#646416" transform="translate(51,69)"/>
<path d="M0 0 C1.98 0 3.96 0 6 0 C6 1.65 6 3.3 6 5 C4.02 5 2.04 5 0 5 C0 3.35 0 1.7 0 0 Z " fill="#180D0D" transform="translate(13,54)"/>
<path d="M0 0 C1.98 0 3.96 0 6 0 C6 1.65 6 3.3 6 5 C4.02 5 2.04 5 0 5 C0 3.35 0 1.7 0 0 Z " fill="#180C0C" transform="translate(19,49)"/>
<path d="M0 0 C1.98 0 3.96 0 6 0 C6 1.65 6 3.3 6 5 C4.02 5 2.04 5 0 5 C0 3.35 0 1.7 0 0 Z " fill="#180D0D" transform="translate(77,0)"/>
<path d="M0 0 C1.65 0 3.3 0 5 0 C5 1.65 5 3.3 5 5 C3.35 5 1.7 5 0 5 C0 3.35 0 1.7 0 0 Z " fill="#525114" transform="translate(67,59)"/>
<path d="M0 0 C1.65 0 3.3 0 5 0 C5 1.65 5 3.3 5 5 C3.35 5 1.7 5 0 5 C0 3.35 0 1.7 0 0 Z " fill="#F3F23C" transform="translate(67,43)"/>
<path d="M0 0 C1.65 0 3.3 0 5 0 C5 1.32 5 2.64 5 4 C3.35 4 1.7 4 0 4 C0 2.68 0 1.36 0 0 Z " fill="#180D0D" transform="translate(29,75)"/>
</svg>
